<svg width="29" height="30" viewBox="0 0 29 30" fill="none" xmlns="http://www.w3.org/2000/svg">
<path d="M24.9163 15.6128C25.3888 14.9884 25.6504 14.2234 25.6504 13.4274C25.6504 12.1646 24.9445 10.9693 23.8082 10.3028C23.5157 10.1312 23.1826 10.0409 22.8435 10.0412H16.0991L16.2679 6.58463C16.3073 5.74932 16.012 4.95619 15.4382 4.35151C15.1566 4.05346 14.8169 3.81632 14.4401 3.65475C14.0633 3.49318 13.6573 3.4106 13.2473 3.41213C11.7848 3.41213 10.491 4.39651 10.1029 5.80557L7.68695 14.5524H4.05039C3.55258 14.5524 3.15039 14.9546 3.15039 15.4524V25.6899C3.15039 26.1878 3.55258 26.5899 4.05039 26.5899H20.962C21.2207 26.5899 21.4738 26.5393 21.7073 26.4381C23.046 25.8671 23.9095 24.5593 23.9095 23.1081C23.9095 22.7537 23.8588 22.4049 23.7576 22.0674C24.2301 21.4431 24.4916 20.6781 24.4916 19.8821C24.4916 19.5278 24.441 19.179 24.3398 18.8415C24.8123 18.2171 25.0738 17.4521 25.0738 16.6562C25.0682 16.3018 25.0176 15.9503 24.9163 15.6128ZM5.17539 24.5649V16.5774H7.45352V24.5649H5.17539ZM23.0741 14.6368L22.4582 15.1712L22.8491 15.8856C22.9779 16.1209 23.0447 16.3851 23.0432 16.6534C23.0432 17.1174 22.8407 17.559 22.492 17.8628L21.876 18.3971L22.267 19.1115C22.3957 19.3468 22.4625 19.6111 22.461 19.8793C22.461 20.3434 22.2585 20.7849 21.9098 21.0887L21.2938 21.6231L21.6848 22.3374C21.8136 22.5728 21.8803 22.837 21.8788 23.1053C21.8788 23.7353 21.5076 24.3034 20.9338 24.5621H9.25352V16.4874L12.052 6.34838C12.1241 6.08851 12.279 5.85924 12.4932 5.69531C12.7074 5.53138 12.9691 5.44173 13.2388 5.43994C13.4526 5.43994 13.6635 5.50182 13.8323 5.62838C14.1107 5.83651 14.2598 6.15151 14.2429 6.48619L13.9729 12.0662H22.8154C23.316 12.3728 23.6254 12.8903 23.6254 13.4274C23.6254 13.8915 23.4229 14.3303 23.0741 14.6368Z" fill="#1D4ED8"/>
</svg>
