<svg width="29" height="30" viewBox="0 0 29 30" fill="none" xmlns="http://www.w3.org/2000/svg">
<g clip-path="url(#clip0_652_11826)">
<path d="M14.3998 2.39844C6.44608 2.39844 -0.000173039 7.63531 -0.000173039 14.0984C-0.000173039 16.7759 1.1192 19.2284 2.97545 21.2028C2.13733 23.4191 0.393577 25.2978 0.365452 25.3203C-0.00579804 25.7141 -0.107048 26.2878 0.106702 26.7828C0.320452 27.2778 0.809827 27.5984 1.34983 27.5984C4.8092 27.5984 7.53733 26.1528 9.1742 24.9941C10.7998 25.5059 12.5548 25.7984 14.3998 25.7984C22.3536 25.7984 28.7998 20.5616 28.7998 14.0984C28.7998 7.63531 22.3536 2.39844 14.3998 2.39844ZM14.3998 23.0984C12.898 23.0984 11.413 22.8678 9.98983 22.4178L8.71295 22.0128L7.61608 22.7891C6.8117 23.3572 5.7092 23.9928 4.3817 24.4203C4.79233 23.7397 5.1917 22.9747 5.50108 22.1591L6.09733 20.5784L4.93858 19.3522C3.92045 18.2666 2.69983 16.4722 2.69983 14.0984C2.69983 9.13719 7.94795 5.09844 14.3998 5.09844C20.8517 5.09844 26.0998 9.13719 26.0998 14.0984C26.0998 19.0597 20.8517 23.0984 14.3998 23.0984Z" fill="#1D4ED8"/>
</g>
<defs>
<clipPath id="clip0_652_11826">
<rect width="28.8" height="28.8" fill="white" transform="translate(0 0.599609)"/>
</clipPath>
</defs>
</svg>
